<?xml version="1.0" encoding="UTF-8"?>
<!DOCTYPE svg PUBLIC "-//W3C//DTD SVG 1.1//EN" "http://www.w3.org/Graphics/SVG/1.1/DTD/svg11.dtd">
<!-- Creator: CorelDRAW 2020 (64-Bit) -->
<svg xmlns="http://www.w3.org/2000/svg" xml:space="preserve" width="518px" height="368px" version="1.1" style="shape-rendering:geometricPrecision; text-rendering:geometricPrecision; image-rendering:optimizeQuality; fill-rule:evenodd; clip-rule:evenodd"
viewBox="0 0 518 367.37"
 xmlns:xlink="http://www.w3.org/1999/xlink"
 xmlns:xodm="http://www.corel.com/coreldraw/odm/2003">
 <defs>
  <style type="text/css">
   <![CDATA[
    .fil1 {fill:orangered}
    .fil0 {fill:#4D4D4D;fill-rule:nonzero}
   ]]>
  </style>
 </defs>
 <g id="Capa_x0020_1">
  <metadata id="CorelCorpID_0Corel-Layer"/>
  <g id="_2231628339824">
   <path class="fil0" d="M226.27 340.96l-5.32 -1.39c-21.07,-5.49 -39.82,-14.64 -56.23,-27.44 -16.27,-12.69 -30.11,-28.92 -41.53,-48.69 -11.33,-19.63 -18.5,-39.7 -21.51,-60.21 -3.04,-20.69 -1.83,-41.51 3.62,-62.45 5.46,-20.99 14.52,-39.69 27.16,-56.07 12.53,-16.24 28.48,-30 47.84,-41.27 19.45,-11.33 39.79,-18.34 61.01,-21.06 21.17,-2.71 42.98,-1.14 65.42,4.7 22.78,5.93 42.86,16.05 60.25,30.36 17.23,14.18 31.6,32.33 43.09,54.43l7.89 15.17 -229.62 132.77c4.95,5.22 10,9.78 15.14,13.68 9.03,6.85 18.32,11.52 27.88,14.01 20.56,5.35 40.04,5.49 58.41,0.4 9.59,-2.65 18.53,-6.24 26.82,-10.74 8.24,-4.48 16.17,-10.08 23.77,-16.79l44.06 -38.88 -24.39 93.67 -5.85 3.81c-20.04,13.07 -40.76,21.45 -62.15,25.14 -21.49,3.71 -43.42,2.66 -65.76,-3.15zm62.08 -263.88c-26.51,-6.91 -52.88,-2.66 -79.13,12.75 -26.24,15.4 -42.84,36.45 -49.79,63.15 -5.43,20.83 -5.06,41.01 1.09,60.53l180.7 -105.2c-5.11,-5.47 -10.59,-10.29 -16.45,-14.47 -10.72,-7.65 -22.87,-13.24 -36.42,-16.76z"/>
   <path class="fil1" d="M93.88 367.38c-23.28,0 -40.67,-6.65 -52.16,-19.96 -11.48,-13.31 -16.02,-32.96 -13.6,-58.96l5.44 -56.24c1.21,-11.49 0.15,-19.96 -3.17,-25.4 -3.33,-5.44 -9.23,-8.17 -17.69,-8.17l-12.7 0 0 -31.29 12.7 0c8.46,0 14.36,-2.8 17.69,-8.39 3.32,-5.6 4.38,-13.99 3.17,-25.18l-5.44 -54.87c-2.42,-26.31 2.12,-46.04 13.6,-59.19 11.49,-13.15 28.88,-19.73 52.16,-19.73l22.68 0 0 32.2 -19.05 0c-13.6,0 -23.21,3.48 -28.8,10.43 -5.59,6.96 -7.63,18.45 -6.12,34.47l4.53 49.9c1.21,11.78 0.76,21.84 -1.36,30.15 -2.11,8.32 -6.42,15.2 -12.92,20.64 -2.62,2.19 -5.66,4.2 -9.12,6.05l0 -1.45c3.46,1.7 6.5,3.65 9.12,5.83 6.5,5.44 10.81,12.33 12.92,20.64 2.12,8.31 2.57,18.37 1.36,30.16l-4.53 51.25c-1.21,16.03 0.9,27.44 6.35,34.25 5.44,6.8 14.97,10.2 28.57,10.2l19.05 0 0 32.66 -22.68 0z"/>
   <path class="fil1" d="M424.12 367.37l-22.68 0 0 -32.65 19.05 0c13.6,0 23.13,-3.41 28.57,-10.2 5.44,-6.81 7.56,-18.22 6.35,-34.25l-4.54 -51.25c-0.9,-11.79 -0.37,-21.85 1.59,-30.16 1.97,-8.32 6.2,-15.19 12.7,-20.64 2.62,-2.19 5.67,-4.14 9.15,-5.84l0 1.47c-3.48,-1.85 -6.53,-3.87 -9.15,-6.06 -6.5,-5.44 -10.73,-12.32 -12.7,-20.64 -1.96,-8.31 -2.49,-18.36 -1.59,-30.16l4.54 -49.89c1.51,-16.03 -0.53,-27.51 -6.12,-34.47 -5.6,-6.95 -15.2,-10.43 -28.8,-10.43l-19.05 0 0 -32.2 22.68 0c23.28,0 40.74,6.58 52.38,19.73 11.64,13.15 16.1,32.88 13.38,59.19l-5.44 54.88c-1.21,11.18 -0.15,19.57 3.17,25.17 3.33,5.59 9.22,8.39 17.69,8.39l12.7 0 0 31.29 -12.7 0c-8.47,0 -14.36,2.73 -17.69,8.17 -3.32,5.44 -4.38,13.91 -3.17,25.4l5.44 56.24c2.42,26 -2.12,45.65 -13.6,58.96 -11.5,13.3 -28.88,19.95 -52.16,19.95z"/>
  </g>
 </g>
</svg>
