<?xml version="1.0" encoding="UTF-8"?>
<!DOCTYPE svg PUBLIC "-//W3C//DTD SVG 1.1//EN" "http://www.w3.org/Graphics/SVG/1.1/DTD/svg11.dtd">
<!-- Creator: CorelDRAW 2020 (64-Bit) -->
<svg xmlns="http://www.w3.org/2000/svg" xml:space="preserve" width="815px" height="148px" version="1.1" style="shape-rendering:geometricPrecision; text-rendering:geometricPrecision; image-rendering:optimizeQuality; fill-rule:evenodd; clip-rule:evenodd"
viewBox="0 0 815 147.92"
 xmlns:xlink="http://www.w3.org/1999/xlink"
 xmlns:xodm="http://www.corel.com/coreldraw/odm/2003">
 <defs>
  <style type="text/css">
   <![CDATA[
    .fil2 {fill:#999999}
    .fil1 {fill:orangered}
    .fil0 {fill:#4D4D4D;fill-rule:nonzero}
   ]]>
  </style>
 </defs>
 <g id="Capa_x0020_1">
  <metadata id="CorelCorpID_0Corel-Layer"/>
  <g id="_2231524357200">
   <path class="fil0" d="M815 37.71l0 78.81 -20.65 0 0 -5.51c-0.5,0.32 -1.01,0.64 -1.52,0.94 -3.53,2.08 -7.21,3.64 -11.04,4.7 -3.9,1.07 -7.84,1.6 -11.83,1.6 -6.14,0 -11.91,-1.11 -17.31,-3.35 -5.38,-2.22 -10.28,-5.52 -14.68,-9.9 -4.4,-4.36 -7.72,-9.21 -9.96,-14.55 -2.27,-5.39 -3.41,-11.14 -3.41,-17.23 0,-12.35 4.46,-22.95 13.37,-31.79 4.4,-4.38 9.3,-7.68 14.68,-9.9 5.4,-2.24 11.17,-3.36 17.31,-3.36 4.02,0 8,0.55 11.95,1.65 3.88,1.08 7.65,2.67 11.28,4.79l1.16 0.7 0 -5.4 20.65 0 0 7.8zm-69.75 35.66c0,3.42 0.6,6.54 1.79,9.36 1.21,2.87 3.08,5.57 5.6,8.09l0.03 0c4.95,4.94 10.79,7.42 17.53,7.42 6.71,0 12.46,-2.44 17.22,-7.33 2.47,-2.53 4.3,-5.24 5.49,-8.14 1.17,-2.85 1.76,-6.01 1.76,-9.48 0,-6.79 -2.44,-12.69 -7.32,-17.69 -2.46,-2.51 -5.11,-4.38 -7.95,-5.6 -2.8,-1.21 -5.9,-1.81 -9.28,-1.81 -3.36,0 -6.46,0.61 -9.29,1.83 -2.92,1.25 -5.63,3.15 -8.13,5.69 -2.51,2.55 -4.39,5.31 -5.63,8.27 -1.21,2.89 -1.82,6.02 -1.82,9.39z"/>
   <path class="fil0" d="M313.78 29.91l12.84 0 0 76.6c0,5.66 -1.02,10.98 -3.05,15.94 -2.03,4.93 -5.03,9.39 -9.01,13.37l0 0.03c-4,3.99 -8.49,7.01 -13.48,9.05 -4.95,2.01 -10.29,3.02 -16.02,3.02 -5.98,0 -10.13,-0.79 -15.15,-2.86l-0.06 -23.77c1.31,1.27 2.73,2.39 4.25,3.34 1.74,1.09 3.57,1.92 5.47,2.49 1.76,0.52 3.59,0.79 5.49,0.79 5.66,0 10.57,-2.06 14.71,-6.16 2.09,-2.07 3.65,-4.34 4.68,-6.79l0.14 -0.34c-0.38,0.18 -0.78,0.36 -1.17,0.53l-16.97 3.1 0.34 0c5.36,0 10.22,-0.77 14.58,-2.31 -4.43,1.24 -13.1,3.05 -22.35,1.59 -2.52,-0.49 -4.97,-1.22 -7.33,-2.19 -3.62,-1.49 -6.98,-3.54 -10.09,-6.14l0.64 1.09c-5.94,-4.76 -11.09,-12.2 -14.25,-23.57 -0.48,-2.47 -0.72,-5.03 -0.72,-7.67l0 -49.14 20.65 0 0 49.14c0,2.64 0.45,5.02 1.35,7.17 0.94,2.22 2.38,4.31 4.34,6.29 1.94,1.96 4.02,3.41 6.23,4.36 2.14,0.91 4.51,1.37 7.11,1.37 2.6,0 4.97,-0.46 7.11,-1.37 2.21,-0.94 4.29,-2.4 6.23,-4.36 1.95,-1.98 3.4,-4.07 4.33,-6.29 0.9,-2.15 1.36,-4.53 1.36,-7.17l0 -49.14 7.8 0z"/>
   <path class="fil0" d="M656.68 38.13c1.44,-1.46 3.05,-2.79 4.82,-4.01 5.81,-3.96 12.72,-5.95 20.72,-5.95 4.19,0 8.19,0.79 11.99,2.35 3.69,1.52 7.1,3.78 10.24,6.78l0.02 -0.02c3.26,3.12 5.7,6.79 7.33,11 1.58,4.08 2.37,8.55 2.37,13.42l0 54.82 -20.65 0 0 -54.82c0,-2.1 -0.32,-3.95 -0.95,-5.55 -0.61,-1.55 -1.54,-2.96 -2.79,-4.23 -1.28,-1.29 -2.64,-2.24 -4.08,-2.85 -1.4,-0.58 -3,-0.88 -4.82,-0.88 -3.55,0 -6.75,1.38 -9.6,4.12 -1.46,1.41 -2.53,2.87 -3.2,4.39 -0.63,1.4 -0.94,2.96 -0.94,4.68l0 55.14 -20.65 0 0 -55.14c0,-3.61 -1.27,-6.73 -3.8,-9.36 -1.25,-1.31 -2.62,-2.28 -4.1,-2.91l0.01 -0.01c-1.42,-0.6 -3.03,-0.91 -4.82,-0.91 -3.53,0 -6.64,1.35 -9.32,4.03 -1.41,1.4 -2.44,2.87 -3.09,4.39 -0.63,1.45 -0.94,3.04 -0.94,4.77l0 55.14 -20.65 0 0 -86.61 20.65 0 0 1.61c1.96,-0.93 3.94,-1.67 5.93,-2.2 2.84,-0.76 5.71,-1.15 8.6,-1.15 3.1,0 6.18,0.56 9.22,1.66 2.9,1.05 5.68,2.58 8.33,4.58 1.5,1.14 2.89,2.37 4.17,3.72z"/>
   <path class="fil0" d="M352.28 116.52l-12.85 0 0 -86.61 20.65 0 0 2.91c5.64,-3.1 12.19,-4.65 19.66,-4.65 10.99,0 20.26,3.84 27.79,11.5 3.72,3.79 6.53,8.03 8.42,12.7 1.89,4.66 2.83,9.67 2.83,15.01l0 49.14 -20.65 0 0 -49.14c0,-2.66 -0.44,-5.09 -1.33,-7.29 -0.9,-2.22 -2.29,-4.32 -4.16,-6.29 -1.84,-1.93 -3.81,-3.36 -5.9,-4.27 -2.06,-0.89 -4.4,-1.34 -7,-1.34 -5.17,0 -9.76,1.94 -13.75,5.82 -2.04,1.98 -3.54,4.08 -4.51,6.3 -0.93,2.13 -1.4,4.49 -1.4,7.07l0 49.14 -7.8 0z"/>
   <path class="fil0" d="M46.46 118.41l-1.42 0c-12.15,0 -22.7,-4.54 -31.66,-13.63 -4.39,-4.45 -7.71,-9.33 -9.96,-14.64 -2.28,-5.39 -3.42,-11.08 -3.42,-17.08 0,-6.03 1.13,-11.71 3.4,-17.03 2.24,-5.26 5.56,-10.07 9.96,-14.44 4.43,-4.41 9.41,-7.72 14.94,-9.94 5.51,-2.21 11.46,-3.32 17.84,-3.32 6.54,0 12.67,1.33 18.37,3.97 5.63,2.61 10.75,6.46 15.35,11.56l4.98 5.52 -47.91 47.3 0.64 0.27c2.31,0.97 4.54,1.45 6.68,1.45 2.51,0 4.87,-0.28 7.06,-0.85 2.16,-0.55 4.16,-1.36 6.01,-2.43 1.98,-1.15 3.79,-2.48 5.41,-4l0.03 0c1.57,-1.47 3.03,-3.21 4.38,-5.22l14.26 -21.14 0 36.54 -2.04 2.25c-4.46,4.89 -9.44,8.59 -14.95,11.09 -5.55,2.51 -11.54,3.77 -17.95,3.77zm-1.66 -70.06c-3.13,0 -6.04,0.59 -8.73,1.76 -2.77,1.2 -5.44,3.09 -8,5.66 -4.95,4.94 -7.42,10.55 -7.42,16.81 0,3.3 0.52,6.33 1.57,9.1l0.3 0.74 32.3 -32.08 -0.94 -0.38c-2.81,-1.07 -5.84,-1.61 -9.08,-1.61z"/>
   <path class="fil0" d="M226.68 52.85c-1.66,-1.66 -3.33,-2.87 -4.99,-3.62 -1.52,-0.69 -3.12,-1.04 -4.8,-1.04 -3.47,0 -6.57,1.36 -9.31,4.06 -1.41,1.39 -2.45,2.86 -3.11,4.39 -0.62,1.42 -0.93,3 -0.93,4.74l0 55.14 -20.65 0 0 -86.61 20.65 0 0 1.33c1.74,-0.8 3.56,-1.44 5.44,-1.92 2.94,-0.76 5.95,-1.15 9.01,-1.15 3.34,0 6.62,0.58 9.85,1.73 3.09,1.09 6.09,2.72 8.98,4.88l3.17 2.36 0 29.02 -13.31 -13.31z"/>
   <path class="fil0" d="M157.24 29.91l12.85 0 0 86.61 -20.65 0 0 -2.91c-5.64,3.1 -12.19,4.64 -19.66,4.64 -5.4,0 -10.45,-0.96 -15.15,-2.89 -4.69,-1.93 -8.91,-4.8 -12.65,-8.6 -3.72,-3.79 -6.53,-8.03 -8.42,-12.7 -1.88,-4.66 -2.83,-9.67 -2.83,-15.01l0 -49.14 20.65 0 0 49.14c0,2.66 0.45,5.09 1.34,7.29 0.9,2.22 2.28,4.32 4.15,6.29 1.84,1.93 3.81,3.36 5.91,4.27 2.06,0.89 4.39,1.34 7,1.34 2.59,0 4.99,-0.47 7.22,-1.4 2.32,-0.98 4.5,-2.45 6.53,-4.42 2.03,-1.98 3.54,-4.08 4.51,-6.29 0.93,-2.14 1.4,-4.5 1.4,-7.08l0 -49.14 7.8 0z"/>
   <path class="fil1" d="M458.85 116.94c-7.13,0 -12.46,-2.04 -15.98,-6.12 -3.52,-4.07 -4.91,-10.09 -4.17,-18.06l1.67 -17.23c0.37,-3.52 0.04,-6.12 -0.97,-7.79 -1.02,-1.66 -2.83,-2.5 -5.42,-2.5l-3.89 0 0 -9.59 3.89 0c2.59,0 4.4,-0.85 5.42,-2.57 1.01,-1.71 1.34,-4.28 0.97,-7.71l-1.67 -16.81c-0.74,-8.07 0.65,-14.11 4.17,-18.14 3.52,-4.03 8.85,-6.05 15.98,-6.05l6.95 0 0 9.87 -5.84 0c-4.17,0 -7.11,1.07 -8.82,3.2 -1.72,2.13 -2.34,5.65 -1.88,10.56l1.39 15.29c0.37,3.61 0.23,6.69 -0.41,9.24 -0.65,2.54 -1.97,4.65 -3.97,6.32 -0.8,0.67 -1.73,1.29 -2.79,1.85l0 -0.44c1.06,0.52 1.99,1.12 2.79,1.79 2,1.66 3.32,3.77 3.97,6.32 0.64,2.55 0.78,5.63 0.41,9.24l-1.39 15.7c-0.37,4.91 0.28,8.41 1.95,10.5 1.67,2.08 4.58,3.12 8.75,3.12l5.84 0 0 10.01 -6.95 0z"/>
   <path class="fil1" d="M560.03 116.94l-6.94 0 0 -10.01 5.83 0c4.17,0 7.09,-1.04 8.76,-3.12 1.66,-2.09 2.31,-5.59 1.94,-10.5l-1.39 -15.7c-0.27,-3.61 -0.11,-6.69 0.49,-9.24 0.6,-2.55 1.9,-4.66 3.89,-6.32 0.8,-0.67 1.74,-1.27 2.8,-1.79l0 0.45c-1.06,-0.57 -2,-1.19 -2.8,-1.86 -1.99,-1.67 -3.29,-3.78 -3.89,-6.32 -0.6,-2.55 -0.76,-5.63 -0.49,-9.24l1.39 -15.29c0.47,-4.91 -0.16,-8.43 -1.87,-10.56 -1.72,-2.13 -4.66,-3.2 -8.83,-3.2l-5.83 0 0 -9.86 6.94 0c7.14,0 12.49,2.01 16.05,6.04 3.57,4.03 4.94,10.08 4.1,18.14l-1.66 16.81c-0.37,3.43 -0.05,6 0.97,7.71 1.02,1.72 2.82,2.57 5.42,2.57l3.89 0 0 9.59 -3.89 0c-2.6,0 -4.4,0.84 -5.42,2.5 -1.02,1.67 -1.34,4.27 -0.97,7.79l1.66 17.23c0.75,7.97 -0.64,13.99 -4.16,18.06 -3.53,4.08 -8.85,6.12 -15.99,6.12z"/>
   <path class="fil2" d="M547.15 57.94c0,9.3 -0.86,17.6 -2.6,24.92 -1.72,7.33 -4.24,13.5 -7.57,18.55 -3.33,5.05 -7.37,8.89 -12.17,11.54 -4.77,2.66 -10.24,3.99 -16.4,3.99 -5.33,0 -10.22,-1.09 -14.72,-3.28 -4.49,-2.18 -8.35,-5.64 -11.61,-10.33 -3.25,-4.7 -5.78,-10.72 -7.62,-18.05 -1.82,-7.32 -2.72,-16.09 -2.72,-26.28 0,-9.3 0.88,-17.6 2.62,-24.92 1.74,-7.33 4.27,-13.5 7.57,-18.55 3.31,-5.05 7.37,-8.89 12.22,-11.54 4.82,-2.66 10.3,-3.99 16.4,-3.99 5.33,0 10.23,1.09 14.72,3.28 4.49,2.18 8.33,5.64 11.56,10.3 3.23,4.67 5.75,10.66 7.59,17.99 1.82,7.32 2.73,16.12 2.73,26.37zm-57.24 0.41c0,1.15 0,2.25 0,3.25 0,1 0.05,2.04 0.15,3.07l36.27 -30.65c-1.74,-5.73 -4.01,-9.95 -6.87,-12.7 -2.82,-2.75 -6.16,-4.13 -10.02,-4.13 -2.75,0 -5.32,0.82 -7.7,2.48 -2.37,1.62 -4.41,4.16 -6.18,7.56 -1.74,3.42 -3.13,7.7 -4.14,12.84 -1.01,5.14 -1.51,11.22 -1.51,18.28zm39.07 0.33c0,-0.98 -0.03,-1.95 -0.08,-2.99 -0.05,-1 -0.07,-1.97 -0.07,-2.89l-36.05 30.48c1.6,5.58 3.82,9.71 6.67,12.43 2.88,2.68 6.21,4.04 9.99,4.04 2.75,0 5.35,-0.82 7.73,-2.51 2.39,-1.65 4.46,-4.19 6.23,-7.56 1.74,-3.36 3.1,-7.64 4.09,-12.78 0.98,-5.17 1.49,-11.22 1.49,-18.22z"/>
  </g>
 </g>
</svg>
